<svg width="124" height="30" viewBox="0 0 124 30" fill="none" xmlns="http://www.w3.org/2000/svg">
<rect width="124" height="30" rx="6" fill="#0ABF53" fill-opacity="0.12"/>
<path d="M12.5098 20H14.2778L14.9798 17.998H18.6848L19.3738 20H21.2198L17.8918 11.056H15.8378L12.5098 20ZM15.4608 16.594L16.8258 12.707H16.8778L18.2168 16.594H15.4608ZM21.9128 16.828C21.9128 18.947 23.1738 20.156 25.2148 20.156C27.1388 20.156 28.1008 19.129 28.2438 17.673H26.6188C26.5148 18.362 26.0988 18.882 25.2148 18.882C24.2788 18.882 23.6418 18.037 23.6418 16.828C23.6418 15.619 24.2788 14.774 25.2148 14.774C26.0988 14.774 26.5148 15.294 26.6188 15.983H28.2438C28.1008 14.527 27.1388 13.5 25.2148 13.5C23.2648 13.5 21.9128 14.748 21.9128 16.828ZM29.2253 16.828C29.2253 18.947 30.4863 20.156 32.5273 20.156C34.4513 20.156 35.4133 19.129 35.5563 17.673H33.9313C33.8273 18.362 33.4113 18.882 32.5273 18.882C31.5913 18.882 30.9543 18.037 30.9543 16.828C30.9543 15.619 31.5913 14.774 32.5273 14.774C33.4113 14.774 33.8273 15.294 33.9313 15.983H35.5563C35.4133 14.527 34.4513 13.5 32.5273 13.5C30.5773 13.5 29.2253 14.748 29.2253 16.828ZM36.5638 16.828C36.5638 18.947 37.9028 20.156 39.9308 20.156C41.8548 20.156 43.2848 18.908 43.2848 16.828C43.2848 14.709 41.9458 13.5 39.9308 13.5C37.9938 13.5 36.5638 14.748 36.5638 16.828ZM38.2928 16.828C38.2928 15.567 38.9428 14.787 39.9308 14.787C40.9188 14.787 41.5558 15.528 41.5558 16.828C41.5558 18.089 40.9188 18.882 39.9308 18.882C38.9428 18.882 38.2928 18.089 38.2928 16.828ZM44.5819 17.504C44.5819 19.48 45.7259 20.156 47.0259 20.156C47.9099 20.156 48.5859 19.805 48.9499 19.09H49.0019V20H50.5879V13.656H48.9239V17.01C48.9239 18.193 48.3259 18.856 47.4939 18.856C46.7659 18.856 46.2589 18.479 46.2589 17.296V13.656H44.5819V17.504ZM52.4173 20H54.0943V16.659C54.0943 15.476 54.7183 14.8 55.5503 14.8C56.2913 14.8 56.7853 15.203 56.7853 16.36V20H58.4623V16.152C58.4623 14.176 57.3183 13.5 56.0183 13.5C55.1343 13.5 54.4323 13.851 54.0683 14.566H54.0163V13.656H52.4173V20ZM60.4336 17.92C60.4336 19.428 61.0836 20 62.7346 20H63.6706V18.648H62.9426C62.3186 18.648 62.0976 18.414 62.0976 17.855V14.904H63.6706V13.656H62.0976V11.732H60.4336V13.656H59.2376V14.904H60.4336V17.92ZM67.4933 17.348C67.4933 19.129 68.7413 20.156 71.1203 20.156C73.5253 20.156 74.8773 18.999 74.8773 17.335C74.8773 15.45 73.3563 15.034 71.9393 14.761L71.3413 14.657C70.2103 14.449 69.3783 14.254 69.3783 13.422C69.3783 12.603 70.1453 12.2 71.1463 12.2C72.1473 12.2 72.8883 12.642 72.8883 13.578H74.5913C74.5913 11.901 73.2263 10.9 71.1463 10.9C69.0143 10.9 67.6493 12.07 67.6493 13.591C67.6493 15.528 69.2483 15.931 70.7173 16.178L71.3153 16.282C72.3553 16.451 73.0963 16.724 73.0963 17.504C73.0963 18.375 72.4203 18.856 71.1203 18.856C69.9633 18.856 69.1963 18.323 69.1963 17.348H67.4933ZM75.9949 16.854C75.9949 18.986 77.2169 20.156 79.3099 20.156C81.1819 20.156 82.1179 19.181 82.3259 18.024H80.7269C80.5839 18.505 80.1679 18.934 79.3359 18.934C78.3999 18.934 77.7499 18.323 77.6979 17.127H82.3909V16.659C82.3909 14.631 81.1949 13.5 79.2839 13.5C77.3469 13.5 75.9949 14.8 75.9949 16.854ZM79.2839 14.722C80.1289 14.722 80.5969 15.19 80.7009 16.113H77.7499C77.9189 15.229 78.4649 14.722 79.2839 14.722ZM84.0722 17.92C84.0722 19.428 84.7222 20 86.3732 20H87.3092V18.648H86.5812C85.9572 18.648 85.7362 18.414 85.7362 17.855V14.904H87.3092V13.656H85.7362V11.732H84.0722V13.656H82.8762V14.904H84.0722V17.92ZM88.7695 17.92C88.7695 19.428 89.4195 20 91.0705 20H92.0065V18.648H91.2785C90.6545 18.648 90.4335 18.414 90.4335 17.855V14.904H92.0065V13.656H90.4335V11.732H88.7695V13.656H87.5735V14.904H88.7695V17.92ZM93.1808 12.044H94.9618V10.484H93.1808V12.044ZM93.2328 20H94.9098V13.656H93.2328V20ZM96.724 20H98.401V16.659C98.401 15.476 99.025 14.8 99.857 14.8C100.598 14.8 101.092 15.203 101.092 16.36V20H102.769V16.152C102.769 14.176 101.625 13.5 100.325 13.5C99.441 13.5 98.739 13.851 98.375 14.566H98.323V13.656H96.724V20ZM104.272 20.702C104.311 22.236 105.546 22.964 107.314 22.964C109.342 22.964 110.681 22.015 110.681 19.636V13.656H109.082V14.566H109.03C108.653 13.851 108.003 13.5 107.054 13.5C105.429 13.5 104.09 14.748 104.09 16.88C104.09 19.012 105.351 20.156 106.95 20.156C107.938 20.156 108.666 19.805 109.03 19.09H109.082V19.636C109.082 21.196 108.445 21.794 107.34 21.794C106.456 21.794 105.884 21.391 105.845 20.702H104.272ZM105.819 16.88C105.819 15.593 106.456 14.774 107.405 14.774C108.341 14.774 109.004 15.554 109.004 16.854C109.004 18.115 108.341 18.882 107.405 18.882C106.456 18.882 105.819 18.167 105.819 16.88Z" fill="#0ABF53"/>
</svg>
