<svg width="18" height="18" viewBox="0 0 18 18" fill="none" xmlns="http://www.w3.org/2000/svg">
<g clip-path="url(#clip0_1350_25969)">
<path d="M13.5 7.50003V3.13503C13.4902 2.69275 13.3055 2.27238 12.9864 1.96595C12.6673 1.65952 12.2398 1.49199 11.7975 1.50003H2.4525C2.01018 1.49199 1.58269 1.65952 1.26361 1.96595C0.944523 2.27238 0.759846 2.69275 0.75 3.13503V8.86503C0.759846 9.30732 0.944523 9.72769 1.26361 10.0341C1.58269 10.3405 2.01018 10.5081 2.4525 10.5H12.6525" stroke="#394962" stroke-width="1.5" stroke-linecap="round" stroke-linejoin="round"/>
<path d="M0.75 4.5H13.5" stroke="#394962" stroke-width="1.5" stroke-linecap="round" stroke-linejoin="round"/>
<path d="M16.5 10.5H10.5C10.0858 10.5 9.75 10.8358 9.75 11.25V15.75C9.75 16.1642 10.0858 16.5 10.5 16.5H16.5C16.9142 16.5 17.25 16.1642 17.25 15.75V11.25C17.25 10.8358 16.9142 10.5 16.5 10.5Z" stroke="#394962" stroke-width="1.5" stroke-linecap="round" stroke-linejoin="round"/>
<path d="M13.5 7.5C14.0967 7.5 14.669 7.73705 15.091 8.15901C15.5129 8.58097 15.75 9.15326 15.75 9.75V10.5H11.25V9.75C11.25 9.15326 11.4871 8.58097 11.909 8.15901C12.331 7.73705 12.9033 7.5 13.5 7.5Z" stroke="#394962" stroke-width="1.5" stroke-linecap="round" stroke-linejoin="round"/>
<path d="M13.5 14.25C13.9142 14.25 14.25 13.9142 14.25 13.5C14.25 13.0858 13.9142 12.75 13.5 12.75C13.0858 12.75 12.75 13.0858 12.75 13.5C12.75 13.9142 13.0858 14.25 13.5 14.25Z" fill="#394962"/>
</g>
<defs>
<clipPath id="clip0_1350_25969">
<rect width="18" height="16.5" fill="white" transform="translate(0 0.75)"/>
</clipPath>
</defs>
</svg>
