<svg width="40" height="26" viewBox="0 0 40 26" fill="none" xmlns="http://www.w3.org/2000/svg">
<path d="M29.1303 2.40997H10.8703C5.17031 2.40997 0.500311 7.17997 0.500311 13.01C0.478947 15.7862 1.55797 18.4579 3.50133 20.4406C5.4447 22.4233 8.09422 23.5557 10.8703 23.59H29.1303C34.8303 23.59 39.5003 18.83 39.5003 13C39.5003 7.17997 34.8303 2.40997 29.1303 2.40997Z" fill="white"/>
<path d="M29.1303 3.26997C30.4103 3.26997 31.6503 3.52997 32.8303 4.03997C35.1379 5.03801 36.9619 6.9015 37.9103 9.22997C38.4106 10.4257 38.6682 11.7088 38.6682 13.005C38.6682 14.3011 38.4106 15.5843 37.9103 16.78C36.9394 19.0912 35.1222 20.9442 32.8303 21.96C31.663 22.4683 30.4035 22.7304 29.1303 22.73H10.8703C9.5971 22.731 8.33742 22.4688 7.17031 21.96C4.86458 20.9643 3.04086 19.1047 2.09031 16.78C1.59002 15.5843 1.33238 14.3011 1.33238 13.005C1.33238 11.7088 1.59002 10.4257 2.09031 9.22997C3.05907 6.91495 4.87657 5.0581 7.17031 4.03997C8.33742 3.53113 9.5971 3.26898 10.8703 3.26997H29.1303ZM29.1303 2.40997H10.8703C5.17031 2.40997 0.500311 7.17997 0.500311 13.01C0.478947 15.7862 1.55797 18.4579 3.50133 20.4406C5.4447 22.4233 8.09422 23.5557 10.8703 23.59H29.1303C34.8303 23.59 39.5003 18.83 39.5003 13C39.5003 7.17997 34.8303 2.40997 29.1303 2.40997Z" fill="#3C4043"/>
<path d="M19.0996 13.75V16.95H18.0996V9.04999H20.7396C21.4096 9.04999 21.9796 9.27999 22.4396 9.72999C22.9296 10.19 23.1596 10.74 23.1596 11.4C23.1683 11.7145 23.1094 12.0272 22.9869 12.317C22.8644 12.6068 22.6812 12.867 22.4496 13.08C21.9896 13.53 21.4196 13.75 20.7496 13.75H19.0996ZM19.0996 10.02V12.78H20.7596C21.1596 12.78 21.4896 12.64 21.7496 12.38C22.0096 12.1 22.1496 11.78 22.1496 11.4C22.1496 11.04 22.0096 10.72 21.7496 10.45C21.6249 10.3124 21.4718 10.2035 21.3009 10.131C21.1299 10.0584 20.9452 10.024 20.7596 10.03H19.0996V10.02ZM25.7696 11.37C26.4996 11.37 27.0796 11.57 27.5096 11.97C27.9296 12.37 28.1496 12.92 28.1496 13.62V16.96H27.1996V16.2H27.1596C26.9899 16.4858 26.7483 16.7221 26.4588 16.8852C26.1692 17.0484 25.842 17.1328 25.5096 17.13C24.9731 17.1464 24.4507 16.9568 24.0496 16.6C23.6496 16.25 23.4496 15.8 23.4496 15.28C23.4496 14.72 23.6596 14.28 24.0796 13.94C24.4896 13.61 25.0496 13.44 25.7396 13.44C26.3296 13.44 26.8096 13.56 27.1896 13.78V13.55C27.1896 13.19 27.0596 12.9 26.7896 12.65C26.5256 12.4069 26.1784 12.2744 25.8196 12.28C25.2596 12.28 24.8196 12.52 24.4996 13L23.6196 12.44C23.8539 12.09 24.1754 11.8071 24.5525 11.6195C24.9296 11.4318 25.3491 11.3458 25.7696 11.37ZM24.4796 15.29C24.4796 15.56 24.5896 15.79 24.8096 15.96C25.0296 16.13 25.2896 16.22 25.5896 16.22C26.0096 16.22 26.3796 16.06 26.7096 15.74C27.0296 15.43 27.1996 15.06 27.1996 14.63C26.8229 14.3575 26.3638 14.2233 25.8996 14.25C25.4996 14.25 25.1596 14.35 24.8896 14.55C24.7677 14.6314 24.6675 14.7414 24.5978 14.8704C24.5281 14.9993 24.491 15.1434 24.4896 15.29H24.4796ZM33.5596 11.54L30.2396 19.34H29.2196L30.4496 16.61L28.2596 11.54H29.3496L30.9196 15.43H30.9396L32.4796 11.54H33.5596Z" fill="#3C4043"/>
<path d="M15.1399 13.1C15.1399 12.78 15.1099 12.46 15.0499 12.15H10.8799V13.9H13.2799C13.2344 14.1816 13.132 14.4509 12.979 14.6916C12.826 14.9323 12.6255 15.1393 12.3899 15.3V16.44H13.8199C14.2567 16.0053 14.5992 15.4853 14.8263 14.9124C15.0534 14.3395 15.1602 13.726 15.1399 13.11V13.1Z" fill="#4285F4"/>
<path d="M12.4004 15.3C12.0556 15.526 11.663 15.6688 11.2535 15.7171C10.844 15.7654 10.429 15.7178 10.0411 15.5781C9.65313 15.4385 9.30298 15.2106 9.01825 14.9124C8.73352 14.6142 8.522 14.2539 8.40039 13.86H6.90039V15.04C7.19764 15.6543 7.6328 16.1917 8.17193 16.6101C8.71106 17.0286 9.33959 17.3168 10.0085 17.4523C10.6773 17.5878 11.3685 17.567 12.028 17.3914C12.6875 17.2158 13.2975 16.8902 13.8104 16.44L12.3804 15.31L12.4004 15.3Z" fill="#34A853"/>
<path d="M8.2496 13C8.2496 12.7 8.2996 12.41 8.3896 12.14V10.97H6.8996C6.58664 11.6027 6.42383 12.2991 6.42383 13.005C6.42383 13.7109 6.58664 14.4072 6.8996 15.04L8.3796 13.87C8.28818 13.5924 8.24094 13.3022 8.2396 13.01L8.2496 13Z" fill="#FABB05"/>
<path d="M10.8802 10.27C11.5402 10.27 12.1202 10.5 12.5802 10.95L13.8502 9.65C13.0531 8.88252 11.9866 8.45877 10.8802 8.47001C10.051 8.47445 9.23964 8.71098 8.53799 9.15283C7.83634 9.59467 7.27244 10.2242 6.91016 10.97L8.39016 12.14C8.55661 11.6046 8.88798 11.1355 9.33696 10.7997C9.78593 10.4638 10.3295 10.2785 10.8902 10.27H10.8802Z" fill="#E94235"/>
</svg>
