<svg width="40" height="26" viewBox="0 0 40 26" fill="none" xmlns="http://www.w3.org/2000/svg">
<rect width="40" height="26" fill="white"/>
<path d="M16.9124 20.9877L17.1941 19.1659L16.5668 19.1511H13.5713L15.653 5.70849C15.6594 5.66791 15.6804 5.63007 15.7111 5.6032C15.7418 5.57633 15.7811 5.56152 15.8221 5.56152H20.8728C22.5496 5.56152 23.7068 5.91688 24.3109 6.61827C24.5941 6.9473 24.7745 7.29114 24.8618 7.66952C24.9533 8.06656 24.9549 8.54091 24.8655 9.11946L24.8591 9.16168V9.53239L25.1423 9.69581C25.3808 9.82468 25.5704 9.9722 25.7158 10.1411C25.9581 10.4224 26.1148 10.78 26.181 11.2039C26.2494 11.6398 26.2268 12.1586 26.1148 12.7459C25.9855 13.4216 25.7766 14.01 25.4944 14.4915C25.2349 14.9351 24.9043 15.3031 24.5118 15.5882C24.137 15.8591 23.6917 16.0648 23.1882 16.1964C22.7004 16.3258 22.1441 16.3911 21.5341 16.3911H21.141C20.8599 16.3911 20.5869 16.4942 20.3726 16.679C20.1578 16.8676 20.0156 17.1254 19.972 17.4072L19.9424 17.5712L19.4448 20.782L19.4222 20.8999C19.4163 20.9372 19.4061 20.9558 19.391 20.9685C19.3775 20.98 19.3581 20.9877 19.3393 20.9877H16.9124Z" fill="#253B80"/>
<path d="M25.4104 9.20459V9.20459V9.20459C25.3954 9.30275 25.3781 9.40311 25.3587 9.5062C24.6927 12.989 22.4139 14.1922 19.5035 14.1922H18.0217C17.6657 14.1922 17.3658 14.4554 17.3104 14.8129V14.8129V14.8129L16.5517 19.7133L16.3368 21.1024C16.3007 21.3371 16.4784 21.5488 16.7111 21.5488H19.3393C19.6505 21.5488 19.9149 21.3185 19.9639 21.0059L19.9897 20.8699L20.4846 17.6717L20.5164 17.4962C20.5648 17.1825 20.8297 16.9522 21.141 16.9522H21.5341C24.0804 16.9522 26.0738 15.8993 26.6564 12.8525C26.8998 11.5797 26.7738 10.5169 26.1298 9.76943C25.9349 9.54404 25.6931 9.35704 25.4104 9.20459Z" fill="#179BD7"/>
<path d="M24.7137 8.92171C24.6119 8.89155 24.5069 8.86413 24.3992 8.83945C24.291 8.81532 24.1801 8.79393 24.0659 8.77529C23.6664 8.70948 23.2286 8.67822 22.7596 8.67822H18.8008C18.7034 8.67822 18.6107 8.70071 18.5278 8.74129C18.3453 8.83067 18.2096 9.00671 18.1767 9.22222L17.3346 14.6545L17.3104 14.813C17.3658 14.4555 17.6657 14.1923 18.0217 14.1923H19.5035C22.4139 14.1923 24.6927 12.9885 25.3587 9.50629C25.3787 9.40319 25.3954 9.30284 25.4104 9.20467C25.2419 9.11364 25.0594 9.03577 24.8628 8.96942C24.8144 8.95296 24.7643 8.93706 24.7137 8.92171Z" fill="#222D65"/>
<path d="M18.1768 9.22203C18.2096 9.00652 18.3453 8.83048 18.5278 8.74165C18.6113 8.70106 18.7034 8.67858 18.8008 8.67858H22.7596C23.2286 8.67858 23.6664 8.70984 24.0659 8.77565C24.1801 8.79429 24.291 8.81568 24.3992 8.83981C24.5069 8.86448 24.6119 8.8919 24.7137 8.92206C24.7643 8.93742 24.8144 8.95332 24.8634 8.96923C25.0599 9.03558 25.2425 9.114 25.411 9.20448C25.6091 7.91742 25.4094 7.0411 24.7261 6.24758C23.9728 5.374 22.6131 5 20.8734 5H15.8226C15.4672 5 15.1641 5.26323 15.1091 5.62132L13.0054 19.2021C12.9639 19.4708 13.1675 19.7132 13.4335 19.7132H16.5517L17.3346 14.6544L18.1768 9.22203Z" fill="#253B80"/>
</svg>
