<svg width="40" height="26" viewBox="0 0 40 26" fill="none" xmlns="http://www.w3.org/2000/svg">
<rect width="40" height="26" fill="white"/>
<path d="M16.9124 20.9886L17.1941 19.1669L16.5668 19.1521H13.5713L15.653 5.70947C15.6594 5.66889 15.6804 5.63105 15.7111 5.60418C15.7418 5.57731 15.7811 5.5625 15.8221 5.5625H20.8728C22.5496 5.5625 23.7068 5.91785 24.3109 6.61924C24.5941 6.94827 24.7745 7.29211 24.8618 7.6705C24.9533 8.06753 24.9549 8.54189 24.8655 9.12044L24.8591 9.16266V9.53337L25.1423 9.69679C25.3808 9.82566 25.5704 9.97318 25.7158 10.1421C25.9581 10.4234 26.1148 10.781 26.181 11.2049C26.2494 11.6408 26.2268 12.1596 26.1148 12.7469C25.9855 13.4225 25.7766 14.011 25.4944 14.4924C25.2349 14.9361 24.9043 15.304 24.5118 15.5892C24.137 15.8601 23.6917 16.0658 23.1882 16.1974C22.7004 16.3268 22.1441 16.392 21.5341 16.392H21.141C20.8599 16.392 20.5869 16.4951 20.3726 16.68C20.1578 16.8686 20.0156 17.1263 19.972 17.4082L19.9424 17.5722L19.4448 20.783L19.4222 20.9009C19.4163 20.9382 19.4061 20.9568 19.391 20.9694C19.3775 20.981 19.3581 20.9886 19.3393 20.9886H16.9124Z" fill="#253B80"/>
<path d="M25.4103 9.20312V9.20312V9.20312C25.3952 9.30129 25.378 9.40164 25.3586 9.50474C24.6925 12.9875 22.4138 14.1907 19.5034 14.1907H18.0215C17.6656 14.1907 17.3657 14.4539 17.3102 14.8115V14.8115V14.8115L16.5515 19.7119L16.3367 21.1009C16.3006 21.3356 16.4783 21.5473 16.7109 21.5473H19.3392C19.6504 21.5473 19.9148 21.317 19.9638 21.0044L19.9896 20.8684L20.4845 17.6702L20.5162 17.4947C20.5647 17.1811 20.8296 16.9507 21.1409 16.9507H21.5339C24.0803 16.9507 26.0737 15.8978 26.6563 12.851C26.8997 11.5782 26.7737 10.5154 26.1297 9.76796C25.9348 9.54258 25.693 9.35558 25.4103 9.20312Z" fill="#179BD7"/>
<path d="M24.7139 8.92317C24.6121 8.89301 24.5071 8.86559 24.3994 8.84091C24.2912 8.81678 24.1802 8.7954 24.0661 8.77675C23.6665 8.71095 23.2288 8.67969 22.7598 8.67969H18.801C18.7035 8.67969 18.6109 8.70217 18.528 8.74275C18.3455 8.83214 18.2098 9.00817 18.1769 9.22369L17.3348 14.656L17.3105 14.8145C17.366 14.4569 17.6659 14.1937 18.0219 14.1937H19.5037C22.4141 14.1937 24.6929 12.99 25.3589 9.50775C25.3789 9.40466 25.3955 9.3043 25.4106 9.20614C25.2421 9.11511 25.0595 9.03724 24.863 8.97088C24.8145 8.95443 24.7645 8.93853 24.7139 8.92317Z" fill="#222D65"/>
<path d="M18.1768 9.22203C18.2096 9.00652 18.3453 8.83048 18.5278 8.74165C18.6113 8.70106 18.7034 8.67858 18.8008 8.67858H22.7596C23.2286 8.67858 23.6664 8.70984 24.0659 8.77565C24.1801 8.79429 24.291 8.81568 24.3992 8.83981C24.5069 8.86448 24.6119 8.8919 24.7137 8.92206C24.7643 8.93742 24.8144 8.95332 24.8634 8.96923C25.0599 9.03558 25.2425 9.114 25.411 9.20448C25.6091 7.91742 25.4094 7.0411 24.7261 6.24758C23.9728 5.374 22.6131 5 20.8734 5H15.8226C15.4672 5 15.1641 5.26323 15.1091 5.62132L13.0054 19.2021C12.9639 19.4708 13.1675 19.7132 13.4335 19.7132H16.5517L17.3346 14.6544L18.1768 9.22203Z" fill="#253B80"/>
</svg>
