<svg width="18" height="18" viewBox="0 0 18 18" fill="none" xmlns="http://www.w3.org/2000/svg">
<path d="M11.25 14.25C11.25 15.4926 10.2426 16.5 9 16.5C7.75736 16.5 6.75 15.4926 6.75 14.25" stroke="#394962" stroke-width="1.5" stroke-miterlimit="10" stroke-linejoin="round"/>
<path d="M6.77602 3.40693L7.06596 4.09862C7.30687 3.99763 7.47788 3.77857 7.51739 3.52035L6.77602 3.40693ZM11.224 3.40693L10.4827 3.52035C10.5222 3.77857 10.6932 3.99763 10.9341 4.09862L11.224 3.40693ZM14.3441 7.22039L13.6087 7.36748L14.3441 7.22039ZM15.3912 12.4558L16.1266 12.3087L15.3912 12.4558ZM2.60886 12.4558L3.3443 12.6029L2.60886 12.4558ZM3.65595 7.22039L4.39138 7.36747L3.65595 7.22039ZM7.51739 3.52035C7.62742 2.80113 8.25005 2.25 9.00003 2.25V0.75C7.49801 0.75 6.25501 1.85311 6.03464 3.29351L7.51739 3.52035ZM9.00003 2.25C9.75001 2.25 10.3726 2.80113 10.4827 3.52035L11.9654 3.29351C11.745 1.85311 10.502 0.75 9.00003 0.75V2.25ZM10.9341 4.09862C12.2802 4.66289 13.3082 5.86519 13.6087 7.36748L15.0795 7.0733C14.6787 5.06902 13.3067 3.46671 11.514 2.71524L10.9341 4.09862ZM13.6087 7.36748L14.6558 12.6029L16.1266 12.3087L15.0795 7.0733L13.6087 7.36748ZM14.6558 12.6029C14.7486 13.067 14.3936 13.5 13.9203 13.5V15C15.3402 15 16.4051 13.701 16.1266 12.3087L14.6558 12.6029ZM13.9203 13.5H4.07973V15H13.9203V13.5ZM4.07973 13.5C3.60645 13.5 3.25148 13.067 3.3443 12.6029L1.87343 12.3087C1.59497 13.701 2.65988 15 4.07973 15V13.5ZM3.3443 12.6029L4.39138 7.36747L2.92051 7.0733L1.87343 12.3087L3.3443 12.6029ZM4.39138 7.36747C4.69184 5.86519 5.71985 4.66288 7.06596 4.09862L6.48607 2.71524C4.69337 3.46671 3.32137 5.06902 2.92051 7.0733L4.39138 7.36747Z" fill="#394962"/>
</svg>
