<svg width="200" height="65" viewBox="0 0 200 65" fill="none" xmlns="http://www.w3.org/2000/svg">
<path d="M28.2174 14.7148H0.505689V23.5138H18.5588C19.6713 23.5138 20.5815 24.4241 20.5815 25.5366V41.1624H16.7383C15.6258 41.1624 14.7155 40.2521 14.7155 39.1396V27.9639H7.07964C3.18584 27.9639 0 31.1497 0 35.0435V42.9323C0 46.8261 3.18584 50.0119 7.07964 50.0119H35.2971V21.7945C35.2971 17.9007 32.1112 14.7148 28.2174 14.7148Z" fill="#0ABF53"/>
<path d="M61.7445 41.1631H57.9013C56.7888 41.1631 55.8786 40.2528 55.8786 39.1403V14.7155H48.2427C44.3489 14.7155 41.163 17.9014 41.163 21.7952V42.933C41.163 46.8268 44.3489 50.0126 48.2427 50.0126H76.4601V0H61.7445V41.1631Z" fill="#0ABF53"/>
<path d="M102.958 41.1624H99.1149C98.0024 41.1624 97.0922 40.2521 97.0922 39.1396V14.7148H82.3766V42.9323C82.3766 46.8261 85.5625 50.0119 89.4563 50.0119H102.958V54.4114H82.8823V64.7275H110.594C114.488 64.7275 117.674 61.5416 117.674 57.6478V14.7148H102.958V41.1624Z" fill="#0ABF53"/>
<path d="M151.757 14.7148H123.54V42.9323C123.54 46.8261 126.726 50.0119 130.619 50.0119H158.331V41.1624H140.278C139.165 41.1624 138.255 40.2521 138.255 39.1396V23.5138H142.098C143.211 23.5138 144.121 24.4241 144.121 25.5366V36.7629H151.757C155.651 36.7629 158.837 33.577 158.837 29.6832V21.7945C158.837 17.9007 155.651 14.7148 151.757 14.7148Z" fill="#0ABF53"/>
<path d="M192.92 14.7148H164.703V50.0119H179.418V23.5138H183.262C184.374 23.5138 185.284 24.4241 185.284 25.5366V49.9614H200V21.7945C200 17.9007 196.865 14.7148 192.92 14.7148Z" fill="#0ABF53"/>
</svg>
