<svg width="18" height="18" viewBox="0 0 18 18" fill="none" xmlns="http://www.w3.org/2000/svg">
<g clip-path="url(#clip0_1350_25995)">
<path d="M11.2613 5.97371L10.0628 7.1692C9.47489 7.75566 8.5176 7.75566 7.92966 7.1692L6.73871 5.97371L9.3769 3.34213C10.8317 1.891 13.1985 1.891 14.6533 3.34213C16.1081 4.79326 16.1081 7.15416 14.6533 8.60529L14.2764 8.98123L11.2613 5.97371Z" stroke="#394962" stroke-width="1.5" stroke-linejoin="round"/>
<path d="M8.99996 3.71807L8.62308 3.34213C7.1683 1.891 4.80147 1.891 3.3467 3.34213C1.89192 4.79326 1.89192 7.15416 3.3467 8.60529L4.47735 9.73311" stroke="#394962" stroke-width="1.5" stroke-linejoin="round"/>
<path d="M11.2613 5.97363L13.9673 8.67288C14.5553 9.25935 14.5553 10.2142 13.9673 10.8007L9 15.7556" stroke="#394962" stroke-width="1.5" stroke-linejoin="round"/>
<path d="M3.72363 10.4849L4.92213 9.28946C5.51007 8.70299 6.46735 8.70299 7.05529 9.28946L11.2689 13.4925L9.00755 15.7481L3.72363 10.4849Z" stroke="#394962" stroke-width="1.5" stroke-linejoin="round"/>
</g>
<defs>
<clipPath id="clip0_1350_25995">
<rect width="15" height="15" fill="white" transform="translate(1.5 1.5)"/>
</clipPath>
</defs>
</svg>
