<svg width="44" height="30" viewBox="0 0 44 30" fill="none" xmlns="http://www.w3.org/2000/svg">
<rect width="40" height="26" transform="translate(2 2)" fill="white"/>
<g clip-path="url(#clip0_2825_129459)">
<path d="M42 2H2V27H42V2Z" fill="#333E48"/>
<path fill-rule="evenodd" clip-rule="evenodd" d="M26.0531 13.1066C24.1741 14.4936 21.4501 15.2306 19.1041 15.2306C15.8161 15.2306 12.8561 14.0156 10.6151 11.9926C10.4391 11.8336 10.5961 11.6166 10.8071 11.7396C13.2241 13.1456 16.2131 13.9936 19.3011 13.9936C21.3841 13.9936 23.6731 13.5616 25.7801 12.6676C26.0981 12.5326 26.3641 12.8766 26.0531 13.1066ZM26.8351 12.2146C26.5941 11.9066 25.2461 12.0686 24.6411 12.1416C24.4571 12.1636 24.4291 12.0036 24.5941 11.8876C25.6701 11.1326 27.4321 11.3506 27.6371 11.6036C27.8421 11.8566 27.5831 13.6256 26.5751 14.4686C26.4201 14.5986 26.2721 14.5296 26.3411 14.3576C26.5681 13.7906 27.0761 12.5226 26.8351 12.2146Z" fill="#FF9900"/>
<path fill-rule="evenodd" clip-rule="evenodd" d="M24.693 6.49938V5.76538C24.6922 5.74072 24.6964 5.71616 24.7055 5.69322C24.7145 5.67027 24.7282 5.64943 24.7456 5.63199C24.7631 5.61455 24.7839 5.60088 24.8068 5.59183C24.8298 5.58278 24.8543 5.57854 24.879 5.57938H28.169C28.274 5.57938 28.359 5.65638 28.359 5.76438V6.39438C28.358 6.50038 28.269 6.63737 28.111 6.85637L26.407 9.28938C27.04 9.27437 27.709 9.36938 28.284 9.69238C28.414 9.76538 28.448 9.87338 28.459 9.97838V10.7614C28.459 10.8694 28.341 10.9944 28.217 10.9294C27.6791 10.6532 27.0829 10.5097 26.4782 10.5109C25.8734 10.5121 25.2778 10.658 24.741 10.9364C24.627 10.9974 24.507 10.8744 24.507 10.7664V10.0214C24.507 9.90238 24.509 9.69837 24.629 9.51737L26.604 6.68438H24.885C24.78 6.68438 24.696 6.60938 24.695 6.49938H24.693ZM12.691 11.0844H11.69C11.595 11.0784 11.519 11.0064 11.511 10.9154L11.512 5.77838C11.512 5.67538 11.598 5.59338 11.705 5.59338H12.637C12.735 5.59838 12.813 5.67238 12.819 5.76638V6.43738H12.838C13.081 5.78838 13.539 5.48638 14.155 5.48638C14.781 5.48638 15.174 5.78938 15.454 6.43738C15.5535 6.15246 15.7413 5.90668 15.99 5.73567C16.2386 5.56467 16.5353 5.47735 16.837 5.48638C17.257 5.48638 17.715 5.65937 17.996 6.04837C18.314 6.48137 18.248 7.10737 18.248 7.65937L18.247 10.8994C18.247 11.0024 18.161 11.0844 18.054 11.0844H17.054C16.953 11.0784 16.874 10.9984 16.874 10.9004V8.17638C16.874 7.96038 16.893 7.41938 16.846 7.21438C16.771 6.86838 16.547 6.77137 16.258 6.77137C16.015 6.77137 15.763 6.93337 15.66 7.19337C15.557 7.45337 15.566 7.88538 15.566 8.17738V10.8994C15.566 11.0024 15.48 11.0844 15.373 11.0844H14.373C14.272 11.0784 14.193 10.9984 14.193 10.9004L14.192 8.17638C14.192 7.60338 14.285 6.76038 13.575 6.76038C12.856 6.76038 12.884 7.58138 12.884 8.17638V10.8994C12.884 11.0024 12.797 11.0844 12.691 11.0844ZM31.2 6.53338C30.462 6.53338 30.415 7.53837 30.415 8.16537C30.415 8.79238 30.406 10.1324 31.191 10.1324C31.967 10.1324 32.004 9.05138 32.004 8.39238C32.004 7.96038 31.985 7.44138 31.854 7.03038C31.742 6.67338 31.518 6.53338 31.2 6.53338ZM31.191 5.48438C32.677 5.48438 33.48 6.76038 33.48 8.38138C33.48 9.94838 32.593 11.1924 31.191 11.1924C29.733 11.1924 28.939 9.91638 28.939 8.32738C28.939 6.72738 29.742 5.48438 31.191 5.48438ZM35.407 11.0844H34.41C34.31 11.0784 34.23 10.9984 34.23 10.9004L34.228 5.76138C34.2335 5.71454 34.2561 5.67141 34.2916 5.64036C34.3271 5.60931 34.3729 5.59256 34.42 5.59338H35.348C35.3893 5.59476 35.429 5.60957 35.4611 5.63555C35.4932 5.66154 35.516 5.69728 35.526 5.73738V6.52338H35.545C35.825 5.82038 36.217 5.48538 36.909 5.48538C37.358 5.48538 37.797 5.64738 38.077 6.09038C38.338 6.50138 38.338 7.19238 38.338 7.69038V10.9234C38.3312 10.9691 38.3079 11.0108 38.2726 11.0406C38.2372 11.0705 38.1922 11.0864 38.146 11.0854H37.143C37.05 11.0794 36.976 11.0114 36.965 10.9234V8.13337C36.965 7.57137 37.031 6.74938 36.339 6.74938C36.096 6.74938 35.872 6.91137 35.76 7.16037C35.62 7.47437 35.601 7.78737 35.601 8.13337V10.8994C35.599 11.0024 35.513 11.0844 35.406 11.0844H35.407ZM23.079 11.1214C23.013 11.1804 22.917 11.1844 22.843 11.1444C22.511 10.8684 22.451 10.7404 22.269 10.4774C21.72 11.0374 21.33 11.2054 20.619 11.2054C19.777 11.2054 19.121 10.6854 19.121 9.64538C19.121 8.83238 19.561 8.28038 20.188 8.00938C20.731 7.77138 21.49 7.72738 22.07 7.66238V7.53238C22.07 7.29438 22.089 7.01238 21.948 6.80638C21.826 6.62238 21.592 6.54638 21.386 6.54638C21.004 6.54638 20.665 6.74237 20.581 7.14737C20.564 7.23737 20.498 7.32737 20.407 7.33137L19.437 7.22638C19.355 7.20738 19.264 7.14238 19.288 7.01738C19.511 5.84038 20.574 5.48538 21.526 5.48538C22.013 5.48538 22.65 5.61538 23.034 5.98338C23.521 6.43838 23.474 7.04537 23.474 7.70637V9.26537C23.474 9.73438 23.669 9.94038 23.852 10.1934C23.916 10.2844 23.93 10.3924 23.849 10.4594L23.081 11.1244L23.079 11.1224V11.1214ZM22.07 8.68138C22.07 9.07138 22.079 9.39637 21.883 9.74337C21.724 10.0254 21.471 10.1984 21.19 10.1984C20.806 10.1984 20.581 9.90538 20.581 9.47238C20.581 8.62038 21.346 8.46538 22.07 8.46538V8.68238V8.68138ZM9.958 11.1214C9.892 11.1804 9.796 11.1844 9.722 11.1444C9.389 10.8684 9.33 10.7404 9.148 10.4774C8.598 11.0374 8.209 11.2054 7.498 11.2054C6.655 11.2054 6 10.6854 6 9.64538C6 8.83238 6.44 8.28038 7.067 8.00938C7.61 7.77138 8.369 7.72738 8.949 7.66238V7.53238C8.949 7.29438 8.968 7.01238 8.827 6.80638C8.705 6.62238 8.471 6.54638 8.265 6.54638C7.883 6.54638 7.544 6.74237 7.46 7.14737C7.443 7.23737 7.377 7.32737 7.286 7.33137L6.316 7.22638C6.234 7.20738 6.143 7.14238 6.167 7.01738C6.39 5.84038 7.453 5.48538 8.405 5.48538C8.892 5.48538 9.529 5.61538 9.913 5.98338C10.4 6.43838 10.353 7.04537 10.353 7.70637V9.26537C10.353 9.73438 10.548 9.94038 10.731 10.1934C10.795 10.2844 10.809 10.3924 10.728 10.4594L9.96 11.1244L9.958 11.1224V11.1214ZM8.949 8.68138C8.949 9.07138 8.958 9.39637 8.762 9.74337C8.603 10.0254 8.35 10.1984 8.069 10.1984C7.685 10.1984 7.46 9.90538 7.46 9.47238C7.46 8.62038 8.225 8.46538 8.949 8.46538V8.68238V8.68138ZM23.138 17.1214C22.61 17.1214 22.111 17.2924 21.643 17.6344V20.7474C22.119 21.1044 22.61 21.2824 23.116 21.2824C24.142 21.2824 24.656 20.5904 24.656 19.2074C24.656 17.8164 24.15 17.1214 23.139 17.1214H23.138ZM21.565 16.9764C21.8327 16.7407 22.1383 16.552 22.469 16.4184C22.7813 16.2933 23.1146 16.2288 23.451 16.2284C23.808 16.2284 24.132 16.2954 24.422 16.4294C24.7098 16.5617 24.9621 16.7605 25.158 17.0094C25.359 17.2624 25.513 17.5694 25.621 17.9294C25.729 18.2894 25.783 18.6974 25.783 19.1514C25.783 19.6124 25.725 20.0294 25.61 20.4014C25.495 20.7734 25.333 21.0894 25.125 21.3494C24.9208 21.6064 24.6614 21.8142 24.366 21.9574C24.069 22.1024 23.737 22.1754 23.373 22.1754C22.703 22.1754 22.127 21.9554 21.644 21.5174V24.1284C21.644 24.2774 21.57 24.3514 21.421 24.3514H20.763C20.614 24.3514 20.54 24.2774 20.54 24.1284V16.6194C20.54 16.4704 20.614 16.3964 20.763 16.3964H21.254C21.403 16.3964 21.488 16.4714 21.511 16.6194L21.566 16.9764H21.565ZM28.571 21.3614C28.8342 21.3582 29.0947 21.3092 29.341 21.2164C29.609 21.1194 29.866 20.9784 30.111 20.7924V19.6544C29.9177 19.6085 29.7221 19.5731 29.525 19.5484C29.32 19.5224 29.121 19.5094 28.928 19.5094C28.087 19.5094 27.667 19.8334 27.667 20.4804C27.667 20.7634 27.745 20.9804 27.901 21.1334C28.057 21.2864 28.28 21.3624 28.571 21.3624V21.3614ZM27.266 17.3674L27.182 17.3954C27.148 17.4064 27.117 17.4124 27.087 17.4124C26.99 17.4124 26.942 17.3454 26.942 17.2114V16.9104C26.942 16.8064 26.957 16.7334 26.987 16.6924C27.017 16.6514 27.077 16.6124 27.166 16.5754C27.404 16.4714 27.698 16.3874 28.048 16.3244C28.3941 16.2614 28.7452 16.2297 29.097 16.2294C29.804 16.2294 30.324 16.3744 30.659 16.6644C30.994 16.9544 31.161 17.4044 31.161 18.0144V21.8304C31.161 21.9794 31.086 22.0534 30.938 22.0534H30.458C30.316 22.0534 30.235 21.9824 30.212 21.8414L30.156 21.4734C29.888 21.7044 29.593 21.8824 29.269 22.0094C28.9621 22.1328 28.6348 22.1973 28.304 22.1994C27.768 22.1994 27.344 22.0484 27.032 21.7474C26.72 21.4464 26.563 21.0424 26.563 20.5364C26.563 19.9934 26.757 19.5604 27.143 19.2374C27.529 18.9144 28.051 18.7524 28.705 18.7524C29.122 18.7524 29.59 18.8154 30.111 18.9414V18.2054C30.111 17.8034 30.022 17.5214 29.843 17.3574C29.664 17.1934 29.352 17.1114 28.906 17.1114C28.385 17.1114 27.839 17.1964 27.266 17.3684V17.3674ZM34.785 23.0454C34.584 23.5584 34.352 23.9264 34.088 24.1504C33.824 24.3744 33.48 24.4854 33.056 24.4854C32.8414 24.4883 32.6275 24.462 32.42 24.4074C32.338 24.3854 32.278 24.3494 32.241 24.3014C32.204 24.2534 32.185 24.1774 32.185 24.0724V23.7824C32.185 23.6414 32.241 23.5704 32.352 23.5704C32.4082 23.5727 32.4641 23.5801 32.519 23.5924C32.6184 23.6095 32.7192 23.6172 32.82 23.6154C33.103 23.6154 33.322 23.5484 33.478 23.4144C33.634 23.2804 33.775 23.0354 33.902 22.6774L34.114 22.1084L31.961 16.7974C31.9202 16.713 31.8939 16.6224 31.883 16.5294C31.883 16.4404 31.935 16.3954 32.039 16.3954H32.708C32.827 16.3954 32.909 16.4144 32.954 16.4514C32.999 16.4884 33.043 16.5704 33.088 16.6974L34.65 21.0264L36.156 16.6974C36.201 16.5714 36.245 16.4894 36.29 16.4514C36.335 16.4134 36.417 16.3954 36.536 16.3954H37.161C37.265 16.3954 37.317 16.4404 37.317 16.5294C37.317 16.5814 37.291 16.6704 37.239 16.7974L34.784 23.0454H34.785Z" fill="white"/>
<path d="M42 26.8691H2V27.9991H42V26.8691Z" fill="#FF9900"/>
</g>
<rect x="1" y="1" width="42" height="28" rx="4" stroke="#F7F8F9" stroke-width="2"/>
<rect x="2.5" y="2.5" width="39" height="25" rx="2.5" stroke="#00112C" stroke-opacity="0.17"/>
<defs>
<clipPath id="clip0_2825_129459">
<rect width="40" height="26" fill="white" transform="translate(2 2)"/>
</clipPath>
</defs>
</svg>
