<svg width="44" height="30" viewBox="0 0 44 30" fill="none" xmlns="http://www.w3.org/2000/svg">
<rect x="1" y="1" width="42" height="28" rx="4" stroke="white" stroke-width="2"/>
<rect x="2.5" y="2.5" width="39" height="25" rx="2.5" stroke="#00112C" stroke-opacity="0.17"/>
<rect width="40" height="26" transform="translate(2 2)" fill="white"/>
<path d="M38.4179 2H5.58218C5.44543 2 5.30843 2 5.17192 2.00081C5.05652 2.00164 4.9414 2.00294 4.82627 2.00613C4.57518 2.01303 4.32195 2.02807 4.074 2.07331C3.82209 2.11934 3.58768 2.19443 3.359 2.31264C3.13418 2.42872 2.92836 2.58056 2.74999 2.76173C2.57155 2.94291 2.42201 3.15154 2.3077 3.38005C2.19124 3.61224 2.11725 3.85031 2.07223 4.10628C2.02743 4.35809 2.01251 4.61516 2.00575 4.86982C2.00265 4.98672 2.00133 5.10361 2.00057 5.22047C1.99978 5.35937 2.00004 5.49818 2.00004 5.63732V24.3629C2.00004 24.5021 1.99978 24.6407 2.00057 24.7798C2.00133 24.8967 2.00265 25.0136 2.00575 25.1305C2.01251 25.3849 2.02743 25.642 2.07223 25.8937C2.11725 26.1498 2.19124 26.3878 2.3077 26.62C2.42201 26.8485 2.57155 27.0574 2.74999 27.2383C2.92836 27.4198 3.13418 27.5716 3.359 27.6874C3.58768 27.8059 3.82209 27.881 4.074 27.927C4.32195 27.972 4.57518 27.9873 4.82627 27.9942C4.9414 27.9968 5.05652 27.9984 5.17192 27.9989C5.30843 28 5.44543 28 5.58218 28H38.4179C38.5544 28 38.6914 28 38.8279 27.9989C38.943 27.9984 39.0581 27.9968 39.1738 27.9942C39.4243 27.9873 39.6775 27.972 39.9261 27.927C40.1776 27.881 40.4121 27.8059 40.6408 27.6874C40.8659 27.5716 41.0711 27.4198 41.2498 27.2383C41.428 27.0574 41.5775 26.8485 41.6921 26.62C41.8088 26.3878 41.8827 26.1498 41.9275 25.8937C41.9724 25.642 41.9869 25.3849 41.9937 25.1305C41.9969 25.0136 41.9984 24.8967 41.9989 24.7798C42 24.6407 42 24.5021 42 24.3629V5.63732C42 5.49818 42 5.35937 41.9989 5.22047C41.9984 5.10361 41.9969 4.98672 41.9937 4.86982C41.9869 4.61516 41.9724 4.35809 41.9275 4.10628C41.8827 3.85031 41.8088 3.61224 41.6921 3.38005C41.5775 3.15154 41.428 2.94291 41.2498 2.76173C41.0711 2.58056 40.8659 2.42872 40.6408 2.31264C40.4121 2.19443 40.1776 2.11934 39.9261 2.07331C39.6775 2.02807 39.4243 2.01303 39.1738 2.00613C39.0581 2.00294 38.943 2.00164 38.8279 2.00081C38.6914 2 38.5544 2 38.4179 2Z" fill="#00112C"/>
<path d="M38.4159 2.86719L38.8198 2.86797C38.9292 2.86876 39.0386 2.86996 39.1487 2.873C39.3401 2.87825 39.564 2.88878 39.7727 2.92676C39.9541 2.95994 40.1062 3.01038 40.2522 3.08586C40.3964 3.16023 40.5285 3.25768 40.6438 3.3746C40.7595 3.4923 40.8556 3.62661 40.9299 3.77459C41.0038 3.92169 41.0532 4.07543 41.0856 4.26098C41.1229 4.47057 41.1333 4.69851 41.1385 4.89404C41.1415 5.0044 41.1429 5.11477 41.1434 5.22776C41.1445 5.3644 41.1445 5.50097 41.1445 5.63788V24.3635C41.1445 24.5004 41.1445 24.6367 41.1434 24.7763C41.1429 24.8867 41.1415 24.997 41.1385 25.1076C41.1333 25.3028 41.1229 25.5306 41.0852 25.7427C41.0532 25.9257 41.0038 26.0795 40.9295 26.2273C40.8555 26.3749 40.7595 26.5091 40.6443 26.626C40.5283 26.7438 40.3967 26.841 40.2508 26.916C40.1059 26.9911 39.954 27.0415 39.7744 27.0744C39.5614 27.1129 39.3281 27.1235 39.1525 27.1283C39.0419 27.1308 38.9319 27.1324 38.8192 27.1329C38.6849 27.134 38.5502 27.1339 38.4159 27.1339H5.58018C5.57839 27.1339 5.57665 27.1339 5.57484 27.1339C5.44207 27.1339 5.30904 27.1339 5.17385 27.1329C5.06363 27.1324 4.95365 27.1309 4.84732 27.1284C4.66762 27.1235 4.4342 27.1129 4.22301 27.0746C4.04184 27.0415 3.88996 26.9911 3.74312 26.915C3.59864 26.8407 3.4671 26.7436 3.35108 26.6256C3.23595 26.5089 3.14028 26.3752 3.0663 26.2273C2.99226 26.0796 2.94272 25.9254 2.91014 25.7402C2.87249 25.5286 2.86215 25.3017 2.85698 25.1077C2.85403 24.9967 2.8528 24.8857 2.85209 24.7754L2.85156 24.4495L2.85159 24.3635V5.63788L2.85156 5.55186L2.85207 5.22673C2.85279 5.1157 2.85403 5.0047 2.85698 4.89377C2.86215 4.69966 2.87249 4.47265 2.91046 4.25923C2.94274 4.07573 2.99226 3.92149 3.06669 3.77307C3.14008 3.62637 3.23592 3.49245 3.35166 3.37497C3.46693 3.25788 3.5989 3.16054 3.74431 3.08546C3.88957 3.01036 4.04174 2.95994 4.22292 2.92684C4.43166 2.88875 4.65571 2.87825 4.84759 2.87298C4.95696 2.86996 5.06634 2.86876 5.17489 2.868L5.58018 2.86719H38.4159Z" fill="white"/>
<path d="M12.9214 10.6128C13.2639 10.1845 13.4963 9.60926 13.435 9.02148C12.9336 9.04641 12.3218 9.35225 11.9676 9.78097C11.6496 10.1481 11.3681 10.7474 11.4414 11.3105C12.0042 11.3593 12.5665 11.0292 12.9214 10.6128Z" fill="#00112C"/>
<path d="M13.4271 11.4212C12.6097 11.3725 11.9148 11.8851 11.5245 11.8851C11.134 11.8851 10.5363 11.4458 9.88981 11.4576C9.04841 11.47 8.26768 11.9457 7.8407 12.7023C6.96247 14.216 7.60894 16.4613 8.46296 17.6941C8.87769 18.304 9.37752 18.9756 10.0361 18.9514C10.6584 18.927 10.9023 18.5485 11.6587 18.5485C12.4145 18.5485 12.6342 18.9514 13.2929 18.9392C13.976 18.927 14.4031 18.329 14.8178 17.7185C15.2936 17.0233 15.4883 16.3519 15.5006 16.3151C15.4883 16.3029 14.1834 15.8023 14.1713 14.3012C14.159 13.0443 15.1958 12.4465 15.2446 12.4094C14.6591 11.5434 13.7442 11.4458 13.4271 11.4212Z" fill="#00112C"/>
<path d="M20.5418 9.71875C22.3183 9.71875 23.5553 10.9433 23.5553 12.7261C23.5553 14.5152 22.2928 15.7461 20.4973 15.7461H18.5304V18.874H17.1094V9.71875H20.5418V9.71875ZM18.5304 14.5533H20.161C21.3982 14.5533 22.1024 13.8872 22.1024 12.7324C22.1024 11.5778 21.3982 10.9179 20.1674 10.9179H18.5304V14.5533Z" fill="#00112C"/>
<path d="M23.9258 16.9762C23.9258 15.8087 24.8204 15.0918 26.4066 15.003L28.2337 14.8951V14.3813C28.2337 13.6389 27.7325 13.1948 26.8952 13.1948C26.1019 13.1948 25.607 13.5754 25.4866 14.1719H24.1923C24.2684 12.9663 25.2962 12.0781 26.9458 12.0781C28.5637 12.0781 29.5978 12.9346 29.5978 14.2733V18.8732H28.2844V17.7756H28.2528C27.8659 18.5179 27.022 18.9874 26.1465 18.9874C24.8395 18.9874 23.9258 18.1752 23.9258 16.9762ZM28.2337 16.3735V15.8469L26.5904 15.9483C25.772 16.0055 25.3089 16.3671 25.3089 16.9381C25.3089 17.5218 25.7911 17.9025 26.5271 17.9025C27.485 17.9025 28.2337 17.2426 28.2337 16.3735Z" fill="#00112C"/>
<path d="M30.8396 21.3291V20.2188C30.9409 20.2441 31.1692 20.2441 31.2835 20.2441C31.9179 20.2441 32.2606 19.9777 32.4699 19.2925C32.4699 19.2798 32.5905 18.8865 32.5905 18.8801L30.1797 12.1992H31.6641L33.352 17.6302H33.3772L35.065 12.1992H36.5115L34.0116 19.2226C33.4408 20.8406 32.781 21.3608 31.3978 21.3608C31.2835 21.3608 30.9409 21.3481 30.8396 21.3291Z" fill="#00112C"/>
</svg>
