<svg width="16" height="16" viewBox="0 0 16 16" fill="none" xmlns="http://www.w3.org/2000/svg">
<g clip-path="url(#clip0_2212_71675)">
<path fill-rule="evenodd" clip-rule="evenodd" d="M0.25 8C0.25 3.71979 3.71979 0.25 8 0.25C12.2802 0.25 15.75 3.71979 15.75 8C15.75 12.2802 12.2802 15.75 8 15.75C3.71979 15.75 0.25 12.2802 0.25 8ZM11.5303 5.46967C11.8232 5.76256 11.8232 6.23744 11.5303 6.53033L7.53033 10.5303C7.27405 10.7866 6.87844 10.8186 6.58732 10.6264C6.54574 10.599 6.50577 10.5664 6.46916 10.5298L4.46967 8.53033C4.17678 8.23744 4.17678 7.76256 4.46967 7.46967C4.76256 7.17678 5.23744 7.17678 5.53033 7.46967L7 8.93934L10.4697 5.46967C10.7626 5.17678 11.2374 5.17678 11.5303 5.46967Z" fill="#08A648"/>
</g>
<defs>
<clipPath id="clip0_2212_71675">
<rect width="16" height="16" fill="white"/>
</clipPath>
</defs>
</svg>
