<svg width="15" height="16" viewBox="0 0 15 16" fill="none" xmlns="http://www.w3.org/2000/svg">
<g clip-path="url(#clip0_2825_129458)">
<path d="M6 2C6.00524 2.20017 5.97034 2.39937 5.89737 2.58584C5.8244 2.77231 5.71483 2.94229 5.57513 3.08575C5.43542 3.2292 5.26841 3.34323 5.08393 3.42111C4.89946 3.499 4.70126 3.53916 4.50101 3.53922C4.30077 3.53929 4.10254 3.49926 3.91802 3.4215C3.73349 3.34374 3.5664 3.22982 3.4266 3.08646C3.2868 2.9431 3.17712 2.7732 3.10402 2.58677C3.03093 2.40035 2.9959 2.20118 3.001 2.001C3.01097 1.61001 3.17326 1.23837 3.45327 0.965309C3.73329 0.692246 4.10889 0.539354 4.50001 0.539223C4.89113 0.539093 5.26683 0.691734 5.54703 0.964611C5.82724 1.23749 5.98977 1.60901 6 2V2ZM6 8C6.00524 8.20017 5.97034 8.39937 5.89737 8.58584C5.8244 8.77231 5.71483 8.94229 5.57513 9.08574C5.43542 9.2292 5.26841 9.34323 5.08393 9.42111C4.89946 9.499 4.70126 9.53916 4.50101 9.53922C4.30077 9.53929 4.10254 9.49926 3.91802 9.4215C3.73349 9.34374 3.5664 9.22982 3.4266 9.08646C3.2868 8.9431 3.17712 8.7732 3.10402 8.58677C3.03093 8.40035 2.9959 8.20118 3.001 8.001C3.01097 7.61001 3.17326 7.23837 3.45327 6.96531C3.73329 6.69225 4.10889 6.53935 4.50001 6.53922C4.89113 6.53909 5.26683 6.69173 5.54703 6.96461C5.82724 7.23749 5.98977 7.60901 6 8V8ZM6 14C6 14.3978 5.84196 14.7794 5.56066 15.0607C5.27936 15.342 4.89782 15.5 4.5 15.5C4.10218 15.5 3.72064 15.342 3.43934 15.0607C3.15804 14.7794 3 14.3978 3 14C3 13.6022 3.15804 13.2206 3.43934 12.9393C3.72064 12.658 4.10218 12.5 4.5 12.5C4.89782 12.5 5.27936 12.658 5.56066 12.9393C5.84196 13.2206 6 13.6022 6 14ZM12 2C12 2.39782 11.842 2.77936 11.5607 3.06066C11.2794 3.34196 10.8978 3.5 10.5 3.5C10.1022 3.5 9.72064 3.34196 9.43934 3.06066C9.15804 2.77936 9 2.39782 9 2C9 1.60218 9.15804 1.22064 9.43934 0.93934C9.72064 0.658035 10.1022 0.5 10.5 0.5C10.8978 0.5 11.2794 0.658035 11.5607 0.93934C11.842 1.22064 12 1.60218 12 2V2ZM12 8C12 8.39782 11.842 8.77936 11.5607 9.06066C11.2794 9.34196 10.8978 9.5 10.5 9.5C10.1022 9.5 9.72064 9.34196 9.43934 9.06066C9.15804 8.77936 9 8.39782 9 8C9 7.60218 9.15804 7.22064 9.43934 6.93934C9.72064 6.65804 10.1022 6.5 10.5 6.5C10.8978 6.5 11.2794 6.65804 11.5607 6.93934C11.842 7.22064 12 7.60218 12 8V8ZM12 14C11.9999 14.197 11.9611 14.3922 11.8856 14.5742C11.8101 14.7562 11.6995 14.9216 11.5602 15.0609C11.4208 15.2002 11.2553 15.3106 11.0733 15.386C10.8912 15.4613 10.696 15.5001 10.499 15.5C10.302 15.4999 10.1068 15.4611 9.92482 15.3856C9.7428 15.3101 9.57742 15.1995 9.43813 15.0602C9.29884 14.9208 9.18837 14.7553 9.11303 14.5733C9.03768 14.3912 8.99893 14.196 8.999 13.999C8.99913 13.601 9.15735 13.2194 9.43884 12.9381C9.72033 12.6568 10.102 12.4989 10.5 12.499C10.898 12.4991 11.2796 12.6573 11.5609 12.9388C11.8422 13.2203 12.0001 13.602 12 14Z" fill="#8F97A3"/>
</g>
<defs>
<clipPath id="clip0_2825_129458">
<rect width="15" height="15" fill="white" transform="translate(0 0.5)"/>
</clipPath>
</defs>
</svg>
