<svg width="18" height="18" viewBox="0 0 18 18" fill="none" xmlns="http://www.w3.org/2000/svg">
<g clip-path="url(#clip0_2831_59641)">
<path fill-rule="evenodd" clip-rule="evenodd" d="M7.59375 1.125V2.25C7.59375 2.71599 7.21599 3.09375 6.75 3.09375C6.28401 3.09375 5.90625 2.71599 5.90625 2.25V1.125C5.90625 0.65901 6.28401 0.28125 6.75 0.28125C7.21599 0.28125 7.59375 0.65901 7.59375 1.125Z" fill="#00112C"/>
<path fill-rule="evenodd" clip-rule="evenodd" d="M5.86744 4.81686C5.57013 4.72766 5.24785 4.80891 5.02837 5.0284C4.80888 5.24789 4.72763 5.57016 4.81682 5.86747L8.19182 17.1175C8.29491 17.4611 8.60403 17.702 8.96243 17.7179C9.32084 17.7339 9.65015 17.5215 9.78339 17.1884L11.8991 11.8991L17.1883 9.78342C17.5214 9.65018 17.7339 9.32087 17.7179 8.96247C17.7019 8.60406 17.4611 8.29494 17.1174 8.19186L5.86744 4.81686ZM9.1139 14.3184L6.88342 6.88345L14.3183 9.11393L10.9366 10.4666C10.7222 10.5524 10.5523 10.7223 10.4666 10.9367L9.1139 14.3184Z" fill="#00112C"/>
<path fill-rule="evenodd" clip-rule="evenodd" d="M0.28125 6.75C0.28125 6.28401 0.65901 5.90625 1.125 5.90625H2.25C2.71599 5.90625 3.09375 6.28401 3.09375 6.75C3.09375 7.21599 2.71599 7.59375 2.25 7.59375H1.125C0.65901 7.59375 0.28125 7.21599 0.28125 6.75Z" fill="#00112C"/>
<path fill-rule="evenodd" clip-rule="evenodd" d="M3.36411 2.1709C3.03461 1.8414 2.50037 1.8414 2.17087 2.1709C1.84136 2.50041 1.84136 3.03464 2.17087 3.36415L2.96962 4.1629C3.29912 4.4924 3.83336 4.4924 4.16286 4.1629C4.49237 3.83339 4.49237 3.29916 4.16286 2.96965L3.36411 2.1709Z" fill="#00112C"/>
</g>
<defs>
<clipPath id="clip0_2831_59641">
<rect width="18" height="18" fill="white"/>
</clipPath>
</defs>
</svg>
