<svg width="18" height="19" viewBox="0 0 18 19" fill="none" xmlns="http://www.w3.org/2000/svg">
<rect y="0.5" width="18" height="18" rx="9" fill="#EE5959"/>
<path d="M10.4 9.5L12.2 7.7C12.6 7.3 12.6 6.7 12.2 6.3C11.8 5.9 11.2 5.9 10.8 6.3L9 8.1L7.2 6.3C6.8 5.9 6.2 5.9 5.8 6.3C5.4 6.7 5.4 7.3 5.8 7.7L7.6 9.5L5.8 11.3C5.4 11.7 5.4 12.3 5.8 12.7C6 12.9 6.2 13 6.5 13C6.8 13 7 12.9 7.2 12.7L9 10.9L10.8 12.7C11 12.9 11.3 13 11.5 13C11.7 13 12 12.9 12.2 12.7C12.6 12.3 12.6 11.7 12.2 11.3L10.4 9.5Z" fill="#394962"/>
</svg>
