<svg width="15" height="15" viewBox="0 0 15 15" fill="none" xmlns="http://www.w3.org/2000/svg">
<path fill-rule="evenodd" clip-rule="evenodd" d="M3.06138 14.4388L0.525025 11.7277C-0.175008 10.9795 -0.175008 9.76491 0.525025 9.01665L7.5 1.56119C8.20003 0.812936 9.33632 0.812936 10.0364 1.56119L14.475 6.30558C15.175 7.05383 15.175 8.2684 14.475 9.01665L10.6704 13.0833C10.3198 13.4581 9.75292 13.4581 9.40227 13.0833C9.05161 12.7085 9.05161 12.1025 9.40227 11.7277L12.8898 8C13.0648 7.81294 13.0648 7.5093 12.8898 7.32223L9.08522 3.25562C8.91021 3.06855 8.62614 3.06855 8.45113 3.25562L2.11025 10.0333C1.93524 10.2204 1.93524 10.524 2.11025 10.7111L4.01251 12.7444C4.18752 12.9314 4.47159 12.9314 4.6466 12.7444L9.40227 7.66112L8.76818 6.98335L4.96365 11.05C4.61299 11.4248 4.04549 11.4241 3.69547 11.05C3.34545 10.6758 3.34482 10.0692 3.69547 9.69442L7.5 5.62781C8.20003 4.87955 9.33632 4.87955 10.0364 5.62781L10.6704 6.30558C11.3705 7.05383 11.3705 8.2684 10.6704 9.01665L5.59773 14.4388C4.8977 15.1871 3.76141 15.1871 3.06138 14.4388Z" fill="#00112C"/>
</svg>
