<svg width="24" height="24" viewBox="0 0 24 24" fill="none" xmlns="http://www.w3.org/2000/svg">
<path fill-rule="evenodd" clip-rule="evenodd" d="M12.7915 8.55969L13.4076 9.17579L14.9976 7.58579L14.9976 6.00001C14.9976 5.05008 15.4496 4.16841 16.1925 3.60385L16.1975 3.59999L19.3976 1.20001C19.7957 0.901421 20.3528 0.941011 20.7047 1.2929L22.7047 3.2929C23.0566 3.64479 23.0961 4.20189 22.7976 4.60001L19.7976 8.60001C19.6087 8.85182 19.3123 9.00001 18.9976 9.00001H16.4118L14.8218 10.59L22.1101 17.8784L22.1126 17.8809C23.2959 19.0518 23.2959 20.9482 22.1126 22.1191C21.5329 22.6977 20.7685 23 19.9976 23C19.2257 23 18.4604 22.697 17.8805 22.1171L11.9976 16.2342L6.11467 22.1171C5.53474 22.697 4.76937 23 3.99756 23C3.22575 23 2.46039 22.697 1.88046 22.1171C0.709931 20.9466 0.709931 19.0434 1.88046 17.8729L6.75804 12.9953C3.55667 12.8695 0.997558 10.2321 0.997559 7C0.997559 6.23481 1.1411 5.48752 1.42021 4.79581C1.54579 4.48458 1.81912 4.2571 2.14797 4.19012C2.47683 4.12314 2.81736 4.22558 3.05467 4.46289L5.79467 7.20289C5.99473 7.40296 6.24937 7.5 6.49756 7.5C6.74575 7.5 7.00038 7.40296 7.20045 7.20289L7.20496 7.19839C7.59841 6.80992 7.59842 6.19007 7.20497 5.8016L7.20044 5.79712L4.46045 3.05711C4.22314 2.8198 4.1207 2.47927 4.18768 2.15041C4.25466 1.82156 4.48214 1.54823 4.79337 1.42265C5.48508 1.14354 6.23237 1 6.99756 1C10.3098 1 12.9976 3.68772 12.9976 7C12.9976 7.53282 12.928 8.05695 12.7915 8.55969ZM8.61263 4.38085L7.23895 3.00718C9.33445 3.13215 10.9976 4.87333 10.9976 7C10.9976 7.51481 10.9011 8.00752 10.7202 8.45581C10.5701 8.82779 10.6568 9.25347 10.9405 9.53711L20.7005 19.2971L20.705 19.3016C21.0984 19.6901 21.0984 20.3099 20.705 20.6984L20.7005 20.7029C20.5004 20.903 20.2457 21 19.9976 21C19.7494 21 19.4947 20.903 19.2947 20.7029L12.7076 14.1159L12.7047 14.1129L12.7017 14.1099L9.96425 11.3725C9.93982 11.3414 9.91329 11.3115 9.88467 11.2829C9.85605 11.2543 9.82612 11.2277 9.79508 11.2033L9.53467 10.9429C9.25103 10.6593 8.82535 10.5725 8.45336 10.7226C8.00508 10.9035 7.51237 11 6.99756 11C4.87089 11 3.12971 9.33689 3.00474 7.24139L4.38045 8.61711C4.96038 9.19704 5.72575 9.5 6.49756 9.5C7.26837 9.5 8.03275 9.19783 8.6124 8.61937C9.79587 7.44847 9.79594 5.55184 8.61263 4.38085ZM10.5833 14.82L4.70046 20.7029C4.50039 20.903 4.24575 21 3.99756 21C3.74937 21 3.49474 20.903 3.29467 20.7029C2.90519 20.3134 2.90519 19.6766 3.29467 19.2871L9.17256 13.4092L10.5833 14.82ZM16.9976 6.00001C16.9976 5.6908 17.1447 5.39325 17.4005 5.19779L19.9037 3.32039L20.6772 4.09385L18.4976 7.00001L16.9976 7.00001V6.00001Z" fill="#00112C"/>
</svg>
