<svg width="38" height="38" viewBox="0 0 38 38" fill="none" xmlns="http://www.w3.org/2000/svg">
<circle cx="19" cy="19" r="19"/>
<path fill-rule="evenodd" clip-rule="evenodd" d="M24.6569 15.0704C25.0474 14.6799 25.0474 14.0467 24.6569 13.6562C24.2664 13.2657 23.6332 13.2657 23.2427 13.6562L19.0001 17.8988L14.7574 13.6562C14.3669 13.2657 13.7338 13.2657 13.3432 13.6562C12.9527 14.0467 12.9527 14.6799 13.3432 15.0704L17.5858 19.313L13.3432 23.5557C12.9527 23.9462 12.9527 24.5794 13.3432 24.9699C13.7337 25.3604 14.3669 25.3604 14.7574 24.9699L19.0001 20.7272L23.2427 24.9699C23.6333 25.3604 24.2664 25.3604 24.6569 24.9699C25.0475 24.5794 25.0475 23.9462 24.6569 23.5557L20.4143 19.313L24.6569 15.0704Z" fill="#687282"/>
</svg>
